<svg width="24" height="24" viewBox="0 0 24 24" fill="none" xmlns="http://www.w3.org/2000/svg">
<path d="M19.6238 4.40915C18.1976 3.74548 16.6924 3.27224 15.146 3.00127C15.1319 2.99848 15.1173 3.00031 15.1043 3.00649C15.0913 3.01267 15.0805 3.02288 15.0736 3.03565C14.8811 3.38414 14.6666 3.83856 14.5163 4.19727C12.8493 3.94058 11.1537 3.94058 9.4867 4.19727C9.31939 3.79981 9.13058 3.41202 8.92113 3.03565C8.9139 3.02317 8.90312 3.0132 8.89019 3.00706C8.87726 3.00092 8.8628 2.9989 8.84871 3.00127C7.3022 3.27167 5.79697 3.74494 4.37093 4.40915C4.35885 4.41428 4.34862 4.42304 4.34159 4.43424C1.48901 8.75453 0.707116 12.968 1.09119 17.1284C1.09212 17.1387 1.09512 17.1488 1.10001 17.1579C1.10489 17.167 1.11156 17.175 1.1196 17.1814C2.78018 18.4287 4.63777 19.3808 6.61303 19.9971C6.62695 20.0012 6.64177 20.0009 6.65552 19.9963C6.66927 19.9916 6.68131 19.9829 6.69003 19.9711C7.11351 19.3857 7.49117 18.7677 7.81383 18.1181C7.81833 18.1092 7.82093 18.0995 7.82146 18.0895C7.82198 18.0796 7.82042 18.0696 7.81687 18.0603C7.81331 18.051 7.80786 18.0425 7.80086 18.0355C7.79386 18.0285 7.78547 18.0231 7.77624 18.0196C7.18357 17.7897 6.60979 17.5125 6.06029 17.1907C6.05022 17.1848 6.04174 17.1764 6.03562 17.1664C6.02949 17.1564 6.02591 17.145 6.02518 17.1332C6.02446 17.1214 6.02661 17.1096 6.03146 17.0989C6.0363 17.0882 6.04369 17.0789 6.05296 17.0717C6.16868 16.984 6.28237 16.8935 6.39395 16.8004C6.40371 16.7923 6.41548 16.7872 6.42794 16.7856C6.44041 16.7839 6.45307 16.7858 6.46453 16.7911C10.0651 18.4573 13.9626 18.4573 17.521 16.7911C17.5326 16.7857 17.5455 16.7837 17.5581 16.7853C17.5708 16.7869 17.5827 16.7922 17.5925 16.8004C17.7025 16.8914 17.818 16.9844 17.9345 17.0717C17.9436 17.0787 17.951 17.0879 17.9558 17.0984C17.9607 17.109 17.963 17.1206 17.9624 17.1322C17.9619 17.1438 17.9585 17.1551 17.9527 17.1652C17.9469 17.1752 17.9387 17.1836 17.929 17.1897C17.3807 17.5146 16.8064 17.7919 16.2121 18.0187C16.2028 18.0223 16.1944 18.0278 16.1874 18.0349C16.1804 18.042 16.175 18.0505 16.1714 18.0599C16.1679 18.0693 16.1663 18.0793 16.1668 18.0893C16.1674 18.0994 16.17 18.1092 16.1745 18.1181C16.5045 18.7668 16.8821 19.3838 17.2974 19.9702C17.3059 19.9821 17.318 19.9911 17.3318 19.9957C17.3456 20.0004 17.3605 20.0006 17.3744 19.9962C19.3529 19.3818 21.2135 18.4295 22.8761 17.1804C22.8841 17.1746 22.8909 17.1672 22.896 17.1585C22.9011 17.1499 22.9043 17.1402 22.9054 17.1303C23.3637 12.3193 22.1372 8.14027 19.6522 4.4361C19.6464 4.42361 19.6363 4.41369 19.6238 4.40822V4.40915ZM8.3519 14.5942C7.26751 14.5942 6.3747 13.5859 6.3747 12.3463C6.3747 11.1075 7.25101 10.0983 8.3519 10.0983C9.46103 10.0983 10.3465 11.1168 10.3291 12.3472C10.3291 13.5859 9.45278 14.5942 8.3519 14.5942ZM15.6621 14.5942C14.5777 14.5942 13.6849 13.5859 13.6849 12.3463C13.6849 11.1075 14.5603 10.0983 15.6621 10.0983C16.7712 10.0983 17.6567 11.1168 17.6393 12.3472C17.6393 13.5859 16.7722 14.5942 15.6621 14.5942Z" fill="white"/>
</svg>
