<svg width="193" height="221" viewBox="0 0 193 221" fill="none" xmlns="http://www.w3.org/2000/svg">
<path d="M130.835 217.617L12.9029 186.017C6.21694 184.226 2.77262 176.786 5.56478 170.453C21.6599 133.943 49.4072 61.7067 58.5077 48.1232C58.2422 41.7264 60.4948 27.9069 70.3519 16.3345C73.6462 12.467 79.5585 13.837 81.7762 18.4078L87.3436 29.8824C95.1653 27.7078 104.128 27.1164 113.743 29.8796C126.067 33.4212 135.713 38.1284 142.905 44.7701L157.22 34.6896C160.544 32.3492 165.153 32.9388 166.525 36.7652C169.439 44.8932 169.734 58.7581 158.059 76.5086C160.067 97.5167 149.337 170.986 144.83 208.088C144.01 214.839 137.403 219.377 130.835 217.617Z" fill="white"/>
<path d="M99.3443 93.6649C96.1686 91.5363 89.7315 90.7504 86.91 90.6236C87.8806 93.594 89.7572 99.0989 91.2607 99.4485C93.3109 99.9252 97.1294 95.564 99.3443 93.6649Z" fill="#050314"/>
<path d="M114.085 98.1229C110.909 95.9942 103.672 93.9964 100.85 93.8696C101.821 96.84 102.896 103.207 104.328 103.785C105.933 104.433 111.87 100.022 114.085 98.1229Z" fill="#050314"/>
<path d="M68.1419 116.814C68.4663 121.968 78.9122 118.988 81.7279 118.789C80.419 115.958 79.3198 110.036 77.4916 109.546C75.8203 109.099 70.1198 114.678 68.1419 116.814Z" fill="#050314"/>
<path d="M115.924 121.079C117.752 121.569 117.721 126.516 118.282 129.163C117.443 132.296 114.687 132.29 110.907 129.468C109.335 128.293 108.876 127.838 106.631 126.331C109.651 124.136 114.322 120.65 115.924 121.079Z" fill="#050314"/>
<path d="M83.8881 118.717C88.4146 117.939 93.222 119.227 93.222 119.227C92.6614 116.579 91.2405 114.57 90.3941 114.343C88.7921 113.914 86.5079 116.523 83.8881 118.717Z" fill="#050314"/>
<path d="M105.314 125.29C101.586 121.866 96.7926 120.256 96.7926 120.256C98.1939 117.943 100.185 117.135 101.059 117.201C102.712 117.325 104.006 122.044 105.314 125.29Z" fill="#050314"/>
<path d="M90.8221 64.5859C86.764 68.8341 80.6395 69.3777 77.1387 66.0336C73.638 62.6895 73.9007 56.5465 77.9588 52.2983C82.0169 48.0501 88.1414 47.5066 91.6421 50.8507C95.1429 54.1948 94.8801 60.3378 90.8221 64.5859Z" fill="#050314" stroke="#050314"/>
<path d="M134.559 69.9706C135.32 75.7961 131.899 80.9054 127.099 81.5322C122.298 82.1591 117.68 78.0993 116.92 72.2738C116.159 66.4482 119.58 61.3389 124.38 60.7121C129.181 60.0853 133.798 64.1451 134.559 69.9706Z" fill="#050314" stroke="#050314"/>
</svg>
